<svg width="78" height="78" viewBox="0 0 78 78" fill="none" xmlns="http://www.w3.org/2000/svg">
<path fill-rule="evenodd" clip-rule="evenodd" d="M24.2613 3.4645C28.0735 3.289 29.289 3.25 39 3.25C48.711 3.25 49.9265 3.29225 53.7355 3.4645C57.5445 3.63675 60.1445 4.2445 62.4195 5.12525C64.8017 6.0255 66.963 7.43275 68.7505 9.25275C70.5705 11.037 71.9745 13.195 72.8715 15.5805C73.7555 17.8555 74.36 20.4555 74.5355 24.258C74.711 28.0767 74.75 29.2922 74.75 39C74.75 48.711 74.7078 49.9265 74.5355 53.7387C74.3633 57.5412 73.7555 60.1412 72.8715 62.4162C71.9745 64.8021 70.5682 66.9636 68.7505 68.7505C66.963 70.5705 64.8017 71.9745 62.4195 72.8715C60.1445 73.7555 57.5445 74.36 53.742 74.5355C49.9265 74.711 48.711 74.75 39 74.75C29.289 74.75 28.0735 74.7077 24.2613 74.5355C20.4588 74.3632 17.8588 73.7555 15.5838 72.8715C13.198 71.9744 11.0364 70.5681 9.2495 68.7505C7.43073 66.9652 6.02327 64.8046 5.12525 62.4195C4.2445 60.1445 3.64 57.5445 3.4645 53.742C3.289 49.9232 3.25 48.7077 3.25 39C3.25 29.289 3.29225 28.0735 3.4645 24.2645C3.63675 20.4555 4.2445 17.8555 5.12525 15.5805C6.0246 13.1953 7.43314 11.0348 9.25275 9.2495C11.0371 7.43113 13.1965 6.02369 15.5805 5.12525C17.8555 4.2445 20.4555 3.64 24.258 3.4645H24.2613ZM53.4462 9.8995C49.6762 9.72725 48.5453 9.6915 39 9.6915C29.4547 9.6915 28.3237 9.72725 24.5537 9.8995C21.0665 10.0587 19.175 10.6405 17.914 11.1312C16.2468 11.7812 15.054 12.5515 13.8028 13.8027C12.6166 14.9567 11.7038 16.3614 11.1312 17.914C10.6405 19.175 10.0588 21.0665 9.8995 24.5537C9.72725 28.3237 9.6915 29.4547 9.6915 39C9.6915 48.5452 9.72725 49.6762 9.8995 53.4462C10.0588 56.9335 10.6405 58.825 11.1312 60.086C11.7032 61.6362 12.6165 63.0435 13.8028 64.1972C14.9565 65.3835 16.3638 66.2967 17.914 66.8687C19.175 67.3595 21.0665 67.9412 24.5537 68.1005C28.3237 68.2727 29.4515 68.3085 39 68.3085C48.5485 68.3085 49.6762 68.2727 53.4462 68.1005C56.9335 67.9412 58.825 67.3595 60.086 66.8687C61.7533 66.2187 62.946 65.4485 64.1973 64.1972C65.3835 63.0435 66.2968 61.6362 66.8688 60.086C67.3595 58.825 67.9413 56.9335 68.1005 53.4462C68.2728 49.6762 68.3085 48.5452 68.3085 39C68.3085 29.4547 68.2728 28.3237 68.1005 24.5537C67.9413 21.0665 67.3595 19.175 66.8688 17.914C66.2188 16.2467 65.4485 15.054 64.1973 13.8027C63.0433 12.6167 61.6385 11.7039 60.086 11.1312C58.825 10.6405 56.9335 10.0587 53.4462 9.8995V9.8995ZM34.4338 50.0207C36.9839 51.0823 39.8235 51.2256 42.4675 50.4261C45.1116 49.6266 47.396 47.934 48.9307 45.6373C50.4654 43.3406 51.1552 40.5823 50.8822 37.8336C50.6091 35.0848 49.3903 32.5162 47.4338 30.5662C46.1865 29.3198 44.6784 28.3654 43.0181 27.7717C41.3577 27.1781 39.5864 26.9599 37.8316 27.133C36.0768 27.3061 34.3822 27.8661 32.8699 28.7727C31.3575 29.6793 30.0649 30.9099 29.0852 32.376C28.1055 33.8421 27.4631 35.5072 27.2042 37.2514C26.9452 38.9956 27.0762 40.7754 27.5878 42.4629C28.0993 44.1504 28.9786 45.7035 30.1623 47.0103C31.3461 48.3172 32.8049 49.3453 34.4338 50.0207ZM26.0065 26.0065C27.7128 24.3002 29.7385 22.9466 31.968 22.0232C34.1974 21.0997 36.5869 20.6244 39 20.6244C41.4131 20.6244 43.8026 21.0997 46.032 22.0232C48.2615 22.9466 50.2872 24.3002 51.9935 26.0065C53.6998 27.7128 55.0534 29.7385 55.9768 31.968C56.9003 34.1974 57.3756 36.5869 57.3756 39C57.3756 41.4131 56.9003 43.8026 55.9768 46.032C55.0534 48.2615 53.6998 50.2872 51.9935 51.9935C48.5474 55.4396 43.8735 57.3756 39 57.3756C34.1265 57.3756 29.4526 55.4396 26.0065 51.9935C22.5604 48.5474 20.6244 43.8735 20.6244 39C20.6244 34.1265 22.5604 29.4526 26.0065 26.0065V26.0065ZM61.451 23.361C61.8738 22.9621 62.2123 22.4825 62.4465 21.9504C62.6806 21.4184 62.8056 20.8447 62.8141 20.2635C62.8226 19.6823 62.7143 19.1053 62.4958 18.5666C62.2773 18.028 61.9529 17.5387 61.5419 17.1276C61.1308 16.7166 60.6415 16.3922 60.1029 16.1737C59.5642 15.9552 58.9872 15.8469 58.406 15.8554C57.8247 15.8639 57.2511 15.9889 56.7191 16.223C56.187 16.4572 55.7074 16.7957 55.3085 17.2185C54.5328 18.0408 54.1081 19.1331 54.1245 20.2635C54.141 21.3939 54.5974 22.4734 55.3968 23.2727C56.1961 24.0721 57.2756 24.5285 58.406 24.545C59.5364 24.5614 60.6287 24.1367 61.451 23.361V23.361Z" fill="#241400"/>
</svg>
