<svg width="17" height="22" viewBox="0 0 17 22" fill="none" xmlns="http://www.w3.org/2000/svg">
<path fill-rule="evenodd" clip-rule="evenodd" d="M16.7405 17.2448C16.7405 20.7282 11.9635 21.1309 8.3713 21.1309L8.11423 21.1306C5.82557 21.1251 0 20.9806 0 17.2237C0 13.8114 4.58498 13.3554 8.14987 13.3382L8.62835 13.3379C10.9169 13.3434 16.7405 13.4879 16.7405 17.2448ZM8.3713 14.9229C3.86807 14.9229 1.58527 15.6965 1.58527 17.2237C1.58527 18.7646 3.86807 19.5456 8.3713 19.5456C12.8735 19.5456 15.1552 18.772 15.1552 17.2448C15.1552 15.7039 12.8735 14.9229 8.3713 14.9229ZM8.3713 0.130859C11.4657 0.130859 13.9821 2.64827 13.9821 5.74272C13.9821 8.83718 11.4657 11.3535 8.3713 11.3535H8.33748C5.24937 11.344 2.74781 8.82555 2.75834 5.73955C2.75834 2.64827 5.27579 0.130859 8.3713 0.130859ZM8.3713 1.64004C6.10858 1.64004 4.26753 3.48001 4.26753 5.74272C4.26016 7.99804 6.08745 9.83696 8.34065 9.84541L8.3713 10.6V9.84541C10.633 9.84541 12.4729 8.00438 12.4729 5.74272C12.4729 3.48001 10.633 1.64004 8.3713 1.64004Z" fill="black"/>
</svg>
