<svg width="38" height="38" viewBox="0 0 38 38" fill="none" xmlns="http://www.w3.org/2000/svg">
<g id="akar-icons:heart">
<g id="Iconly/Light Outline/Profile">
<g id="Profile">
<path id="Combined Shape" fill-rule="evenodd" clip-rule="evenodd" d="M27.7405 26.114C27.7405 29.5973 22.9635 30 19.3713 30L19.1142 29.9998C16.8256 29.9942 11 29.8497 11 26.0928C11 22.6805 15.585 22.2245 19.1499 22.2073L19.6284 22.207C21.9169 22.2126 27.7405 22.3571 27.7405 26.114ZM19.3713 23.7921C14.8681 23.7921 12.5853 24.5657 12.5853 26.0928C12.5853 27.6337 14.8681 28.4147 19.3713 28.4147C23.8735 28.4147 26.1552 27.6411 26.1552 26.114C26.1552 24.5731 23.8735 23.7921 19.3713 23.7921ZM19.3713 9C22.4657 9 24.9821 11.5174 24.9821 14.6119C24.9821 17.7063 22.4657 20.2227 19.3713 20.2227H19.3375C16.2494 20.2132 13.7478 17.6947 13.7583 14.6087C13.7583 11.5174 16.2758 9 19.3713 9ZM19.3713 10.5092C17.1086 10.5092 15.2675 12.3492 15.2675 14.6119C15.2602 16.8672 17.0874 18.7061 19.3406 18.7146L19.3713 19.4691V18.7146C21.633 18.7146 23.4729 16.8735 23.4729 14.6119C23.4729 12.3492 21.633 10.5092 19.3713 10.5092Z" fill="black"/>
</g>
</g>
</g>
</svg>
