<svg width="177" height="42" viewBox="0 0 177 42" fill="none" xmlns="http://www.w3.org/2000/svg">
<path d="M47.798 8.59282H51.102V15.8308H55.526V18.3928H47.798V8.59282ZM56.4386 8.59282H59.7426V18.3928H56.4386V8.59282ZM69.1732 13.2688C69.7518 13.4835 70.1998 13.7962 70.5172 14.2068C70.8345 14.6175 70.9932 15.1122 70.9932 15.6908C70.9932 16.5495 70.6385 17.2168 69.9292 17.6928C69.2198 18.1595 68.1932 18.3928 66.8492 18.3928H61.3332V8.59282H66.5692C67.8758 8.59282 68.8605 8.82615 69.5232 9.29282C70.1952 9.75949 70.5312 10.3802 70.5312 11.1548C70.5312 11.6122 70.4145 12.0228 70.1812 12.3868C69.9572 12.7508 69.6212 13.0448 69.1732 13.2688ZM64.5812 10.9028V12.3588H66.1212C66.8398 12.3588 67.1992 12.1162 67.1992 11.6308C67.1992 11.1455 66.8398 10.9028 66.1212 10.9028H64.5812ZM66.5692 16.0828C67.2972 16.0828 67.6612 15.8262 67.6612 15.3128C67.6612 14.7995 67.2972 14.5428 66.5692 14.5428H64.5812V16.0828H66.5692ZM76.3613 15.9288H75.4653V18.3928H72.1613V8.59282H76.8793C77.7846 8.59282 78.5733 8.74215 79.2453 9.04082C79.9173 9.33949 80.4353 9.76882 80.7993 10.3288C81.1633 10.8888 81.3453 11.5422 81.3453 12.2888C81.3453 12.9888 81.1866 13.6002 80.8693 14.1228C80.5519 14.6455 80.0946 15.0608 79.4973 15.3688L81.5553 18.3928H78.0273L76.3613 15.9288ZM78.0133 12.2888C78.0133 11.9248 77.9013 11.6448 77.6773 11.4488C77.4533 11.2435 77.1173 11.1408 76.6693 11.1408H75.4653V13.4368H76.6693C77.1173 13.4368 77.4533 13.3388 77.6773 13.1428C77.9013 12.9375 78.0133 12.6528 78.0133 12.2888ZM89.2709 16.6848H85.5469L84.8889 18.3928H81.5289L85.8129 8.59282H89.0609L93.3449 18.3928H89.9289L89.2709 16.6848ZM88.3609 14.3048L87.4089 11.8408L86.4569 14.3048H88.3609ZM98.0722 15.9288H97.1762V18.3928H93.8722V8.59282H98.5902C99.4956 8.59282 100.284 8.74215 100.956 9.04082C101.628 9.33949 102.146 9.76882 102.51 10.3288C102.874 10.8888 103.056 11.5422 103.056 12.2888C103.056 12.9888 102.898 13.6002 102.58 14.1228C102.263 14.6455 101.806 15.0608 101.208 15.3688L103.266 18.3928H99.7382L98.0722 15.9288ZM99.7242 12.2888C99.7242 11.9248 99.6122 11.6448 99.3882 11.4488C99.1642 11.2435 98.8282 11.1408 98.3802 11.1408H97.1762V13.4368H98.3802C98.8282 13.4368 99.1642 13.3388 99.3882 13.1428C99.6122 12.9375 99.7242 12.6528 99.7242 12.2888ZM109.991 14.8368V18.3928H106.687V14.7948L102.991 8.59282H106.477L108.479 11.9808L110.495 8.59282H113.687L109.991 14.8368Z" fill="#720418"/>
<path d="M54.81 25.5028C55.4513 25.5028 56.032 25.6502 56.552 25.9448C57.072 26.2308 57.4793 26.6382 57.774 27.1668C58.0687 27.6955 58.216 28.2978 58.216 28.9738C58.216 29.6498 58.0687 30.2522 57.774 30.7808C57.4793 31.3095 57.072 31.7212 56.552 32.0158C56.032 32.3105 55.4513 32.4578 54.81 32.4578C54.238 32.4578 53.7223 32.3365 53.263 32.0938C52.8123 31.8512 52.4483 31.5002 52.171 31.0408V32.3928H51.287V22.7468H52.21V26.8548C52.496 26.4128 52.86 26.0792 53.302 25.8538C53.7527 25.6198 54.2553 25.5028 54.81 25.5028ZM54.745 31.6388C55.2217 31.6388 55.655 31.5305 56.045 31.3138C56.435 31.0885 56.7383 30.7722 56.955 30.3648C57.1803 29.9575 57.293 29.4938 57.293 28.9738C57.293 28.4538 57.1803 27.9902 56.955 27.5828C56.7383 27.1755 56.435 26.8635 56.045 26.6468C55.655 26.4215 55.2217 26.3088 54.745 26.3088C54.2597 26.3088 53.822 26.4215 53.432 26.6468C53.0507 26.8635 52.7473 27.1755 52.522 27.5828C52.3053 27.9902 52.197 28.4538 52.197 28.9738C52.197 29.4938 52.3053 29.9575 52.522 30.3648C52.7473 30.7722 53.0507 31.0885 53.432 31.3138C53.822 31.5305 54.2597 31.6388 54.745 31.6388ZM62.8925 32.4578C62.2339 32.4578 61.6402 32.3105 61.1115 32.0158C60.5829 31.7125 60.1669 31.2965 59.8635 30.7678C59.5602 30.2392 59.4085 29.6412 59.4085 28.9738C59.4085 28.3065 59.5602 27.7085 59.8635 27.1798C60.1669 26.6512 60.5829 26.2395 61.1115 25.9448C61.6402 25.6502 62.2339 25.5028 62.8925 25.5028C63.5512 25.5028 64.1449 25.6502 64.6735 25.9448C65.2022 26.2395 65.6139 26.6512 65.9085 27.1798C66.2119 27.7085 66.3635 28.3065 66.3635 28.9738C66.3635 29.6412 66.2119 30.2392 65.9085 30.7678C65.6139 31.2965 65.2022 31.7125 64.6735 32.0158C64.1449 32.3105 63.5512 32.4578 62.8925 32.4578ZM62.8925 31.6388C63.3779 31.6388 63.8112 31.5305 64.1925 31.3138C64.5825 31.0885 64.8859 30.7722 65.1025 30.3648C65.3192 29.9575 65.4275 29.4938 65.4275 28.9738C65.4275 28.4538 65.3192 27.9902 65.1025 27.5828C64.8859 27.1755 64.5825 26.8635 64.1925 26.6468C63.8112 26.4215 63.3779 26.3088 62.8925 26.3088C62.4072 26.3088 61.9695 26.4215 61.5795 26.6468C61.1982 26.8635 60.8949 27.1755 60.6695 27.5828C60.4529 27.9902 60.3445 28.4538 60.3445 28.9738C60.3445 29.4938 60.4529 29.9575 60.6695 30.3648C60.8949 30.7722 61.1982 31.0885 61.5795 31.3138C61.9695 31.5305 62.4072 31.6388 62.8925 31.6388ZM71.0429 32.4578C70.3843 32.4578 69.7906 32.3105 69.2619 32.0158C68.7333 31.7125 68.3173 31.2965 68.0139 30.7678C67.7106 30.2392 67.5589 29.6412 67.5589 28.9738C67.5589 28.3065 67.7106 27.7085 68.0139 27.1798C68.3173 26.6512 68.7333 26.2395 69.2619 25.9448C69.7906 25.6502 70.3843 25.5028 71.0429 25.5028C71.7016 25.5028 72.2953 25.6502 72.8239 25.9448C73.3526 26.2395 73.7643 26.6512 74.0589 27.1798C74.3623 27.7085 74.5139 28.3065 74.5139 28.9738C74.5139 29.6412 74.3623 30.2392 74.0589 30.7678C73.7643 31.2965 73.3526 31.7125 72.8239 32.0158C72.2953 32.3105 71.7016 32.4578 71.0429 32.4578ZM71.0429 31.6388C71.5283 31.6388 71.9616 31.5305 72.3429 31.3138C72.7329 31.0885 73.0363 30.7722 73.2529 30.3648C73.4696 29.9575 73.5779 29.4938 73.5779 28.9738C73.5779 28.4538 73.4696 27.9902 73.2529 27.5828C73.0363 27.1755 72.7329 26.8635 72.3429 26.6468C71.9616 26.4215 71.5283 26.3088 71.0429 26.3088C70.5576 26.3088 70.1199 26.4215 69.7299 26.6468C69.3486 26.8635 69.0453 27.1755 68.8199 27.5828C68.6033 27.9902 68.4949 28.4538 68.4949 28.9738C68.4949 29.4938 68.6033 29.9575 68.8199 30.3648C69.0453 30.7722 69.3486 31.0885 69.7299 31.3138C70.1199 31.5305 70.5576 31.6388 71.0429 31.6388ZM78.9333 28.9608L77.3213 30.4428V32.3928H76.3983V22.7468H77.3213V29.2858L81.4033 25.5548H82.5473L79.6223 28.3498L82.8203 32.3928H81.6893L78.9333 28.9608ZM89.4413 32.4578C88.8866 32.4578 88.3536 32.3798 87.8423 32.2238C87.3396 32.0592 86.9453 31.8555 86.6593 31.6128L87.0753 30.8848C87.3613 31.1102 87.721 31.2965 88.1543 31.4438C88.5876 31.5825 89.0383 31.6518 89.5063 31.6518C90.1303 31.6518 90.5896 31.5565 90.8843 31.3658C91.1876 31.1665 91.3393 30.8892 91.3393 30.5338C91.3393 30.2825 91.257 30.0875 91.0923 29.9488C90.9276 29.8015 90.7196 29.6932 90.4683 29.6238C90.217 29.5458 89.8833 29.4722 89.4673 29.4028C88.9126 29.2988 88.4663 29.1948 88.1283 29.0908C87.7903 28.9782 87.5 28.7918 87.2573 28.5318C87.0233 28.2718 86.9063 27.9122 86.9063 27.4528C86.9063 26.8808 87.1446 26.4128 87.6213 26.0488C88.098 25.6848 88.761 25.5028 89.6103 25.5028C90.0523 25.5028 90.4943 25.5635 90.9363 25.6848C91.3783 25.7975 91.7423 25.9492 92.0283 26.1398L91.6253 26.8808C91.062 26.4908 90.3903 26.2958 89.6103 26.2958C89.021 26.2958 88.5746 26.3998 88.2713 26.6078C87.9766 26.8158 87.8293 27.0888 87.8293 27.4268C87.8293 27.6868 87.9116 27.8948 88.0763 28.0508C88.2496 28.2068 88.462 28.3238 88.7133 28.4018C88.9646 28.4712 89.3113 28.5448 89.7533 28.6228C90.2993 28.7268 90.737 28.8308 91.0663 28.9348C91.3956 29.0388 91.6773 29.2165 91.9113 29.4678C92.1453 29.7192 92.2623 30.0658 92.2623 30.5078C92.2623 31.1058 92.011 31.5825 91.5083 31.9378C91.0143 32.2845 90.3253 32.4578 89.4413 32.4578ZM97.5696 31.9768C97.3963 32.1328 97.1796 32.2542 96.9196 32.3408C96.6683 32.4188 96.404 32.4578 96.1266 32.4578C95.4853 32.4578 94.9913 32.2845 94.6446 31.9378C94.298 31.5912 94.1246 31.1015 94.1246 30.4688V26.3348H92.9026V25.5548H94.1246V24.0598H95.0476V25.5548H97.1276V26.3348H95.0476V30.4168C95.0476 30.8242 95.1473 31.1362 95.3466 31.3528C95.5546 31.5608 95.8493 31.6648 96.2306 31.6648C96.4213 31.6648 96.6033 31.6345 96.7766 31.5738C96.9586 31.5132 97.1146 31.4265 97.2446 31.3138L97.5696 31.9768ZM101.804 32.4578C101.145 32.4578 100.551 32.3105 100.023 32.0158C99.494 31.7125 99.078 31.2965 98.7747 30.7678C98.4713 30.2392 98.3197 29.6412 98.3197 28.9738C98.3197 28.3065 98.4713 27.7085 98.7747 27.1798C99.078 26.6512 99.494 26.2395 100.023 25.9448C100.551 25.6502 101.145 25.5028 101.804 25.5028C102.462 25.5028 103.056 25.6502 103.585 25.9448C104.113 26.2395 104.525 26.6512 104.82 27.1798C105.123 27.7085 105.275 28.3065 105.275 28.9738C105.275 29.6412 105.123 30.2392 104.82 30.7678C104.525 31.2965 104.113 31.7125 103.585 32.0158C103.056 32.3105 102.462 32.4578 101.804 32.4578ZM101.804 31.6388C102.289 31.6388 102.722 31.5305 103.104 31.3138C103.494 31.0885 103.797 30.7722 104.014 30.3648C104.23 29.9575 104.339 29.4938 104.339 28.9738C104.339 28.4538 104.23 27.9902 104.014 27.5828C103.797 27.1755 103.494 26.8635 103.104 26.6468C102.722 26.4215 102.289 26.3088 101.804 26.3088C101.318 26.3088 100.881 26.4215 100.491 26.6468C100.109 26.8635 99.806 27.1755 99.5807 27.5828C99.364 27.9902 99.2557 28.4538 99.2557 28.9738C99.2557 29.4938 99.364 29.9575 99.5807 30.3648C99.806 30.7722 100.109 31.0885 100.491 31.3138C100.881 31.5305 101.318 31.6388 101.804 31.6388ZM108.043 26.8938C108.26 26.4345 108.58 26.0878 109.005 25.8538C109.438 25.6198 109.971 25.5028 110.604 25.5028V26.3998L110.383 26.3868C109.664 26.3868 109.1 26.6078 108.693 27.0498C108.286 27.4918 108.082 28.1115 108.082 28.9088V32.3928H107.159V25.5548H108.043V26.8938ZM118.166 29.2598H112.446C112.498 29.9705 112.771 30.5468 113.265 30.9888C113.759 31.4222 114.383 31.6388 115.137 31.6388C115.561 31.6388 115.951 31.5652 116.307 31.4178C116.662 31.2618 116.97 31.0365 117.23 30.7418L117.75 31.3398C117.446 31.7038 117.065 31.9812 116.606 32.1718C116.155 32.3625 115.657 32.4578 115.111 32.4578C114.409 32.4578 113.785 32.3105 113.239 32.0158C112.701 31.7125 112.281 31.2965 111.978 30.7678C111.674 30.2392 111.523 29.6412 111.523 28.9738C111.523 28.3065 111.666 27.7085 111.952 27.1798C112.246 26.6512 112.645 26.2395 113.148 25.9448C113.659 25.6502 114.231 25.5028 114.864 25.5028C115.496 25.5028 116.064 25.6502 116.567 25.9448C117.069 26.2395 117.464 26.6512 117.75 27.1798C118.036 27.6998 118.179 28.2978 118.179 28.9738L118.166 29.2598ZM114.864 26.2958C114.205 26.2958 113.65 26.5082 113.2 26.9328C112.758 27.3488 112.506 27.8948 112.446 28.5708H117.295C117.234 27.8948 116.978 27.3488 116.528 26.9328C116.086 26.5082 115.531 26.2958 114.864 26.2958Z" fill="#241400"/>
<line x1="48" y1="20.8928" x2="175" y2="20.8928" stroke="black" stroke-opacity="0.59"/>
<g clip-path="url(#clip0_559_93)">
<path d="M39.0037 14.9044C38.8339 13.6276 38.81 11.4286 39.9958 10.6902C40.017 10.6767 40.0328 10.6571 40.0514 10.6403C41.0209 10.3302 41.6919 9.89504 41.1652 9.30943L26.8633 5.00012L3.70522 8.21982C3.70522 8.21982 1.05333 8.59886 1.29023 12.7189C1.41883 14.9613 2.12213 16.0626 2.73719 16.6046L0.836863 17.1773C0.309419 17.7629 0.980256 18.1982 1.94991 18.5078C1.96834 18.5251 1.98388 18.5445 2.00544 18.558C3.19056 19.2971 3.16775 21.4958 2.99728 22.7728C-1.26025 23.9818 0.268056 24.3757 0.268056 24.3757L1.20199 24.6017C0.545064 25.1954 -0.107347 26.3211 0.0148627 28.456C0.251887 32.5753 2.4301 32.8596 2.4301 32.8596L17.5846 37.7854L40.4585 32.2449C40.4585 32.2449 41.9873 31.8503 37.7286 30.6413C37.5574 29.3663 37.5336 27.1678 38.7215 26.4269C38.7433 26.4137 38.7592 26.3938 38.7769 26.3772C39.7465 26.0671 40.4169 25.6323 39.8901 25.0467L38.8958 24.7465C39.5589 24.3467 40.5549 23.3017 40.7109 20.5872C40.8186 18.7201 40.3315 17.6266 39.7677 16.9828L41.7328 16.5073C41.733 16.508 43.2618 16.1135 39.0037 14.9044ZM19.8711 14.8516L23.7176 14.0611L36.7167 11.3898L38.6534 10.9914C38.0346 12.124 38.0605 13.674 38.1629 14.6703C38.1854 14.8956 38.2112 15.1014 38.2363 15.2579L36.1165 15.7849L19.7094 19.8665L19.8711 14.8516ZM3.34799 18.8605L5.28442 19.2588L17.7682 21.8251L18.8588 22.0485L22.1294 22.7207L22.2907 27.7357L5.42781 23.5403L3.76538 23.1272C3.78982 22.9705 3.81565 22.7649 3.83908 22.5389C3.94086 21.5435 3.96731 19.9931 3.34799 18.8605ZM2.59568 12.5206C2.57224 11.4247 2.76753 10.6322 3.16223 10.2293C3.41342 9.97212 3.70986 9.9186 3.91316 9.9186C4.02058 9.9186 4.09792 9.93352 4.10318 9.93352L14.0814 13.1866L19.0596 14.8096L18.8963 19.8596L4.93032 15.9441L4.1933 15.7377C4.16623 15.73 4.1295 15.7248 4.10118 15.7235C4.04364 15.7194 2.66286 15.5923 2.59568 12.5206ZM17.6207 35.5975L2.91806 31.4754C2.89086 31.4675 2.85451 31.4623 2.82619 31.4609C2.76765 31.457 1.38624 31.33 1.31943 28.2591C1.29562 27.1619 1.49191 26.3701 1.88586 25.9668C2.13768 25.7096 2.43424 25.6561 2.63717 25.6561C2.74484 25.6561 2.82192 25.6705 2.82756 25.6705C2.82756 25.6705 2.82819 25.6705 2.82756 25.6705L17.783 30.5474L17.6207 35.5975ZM36.8866 30.4074C36.9098 30.6335 36.9356 30.8389 36.9607 30.9956L18.4334 35.6046L18.5954 30.5896L22.5563 29.7753L23.1413 29.9168L25.3338 29.2042L35.4404 27.1274L37.3778 26.7288C36.7584 27.8613 36.784 29.4119 36.8866 30.4074ZM37.9071 23.5918C37.8734 23.5926 37.8397 23.5971 37.808 23.6071L36.4106 23.9983L23.1057 27.729L22.943 22.6791L27.3082 21.2553L37.878 17.8082C37.8794 17.8076 38.4341 17.6844 38.8412 18.0984C39.2353 18.5013 39.4308 19.2938 39.4077 20.3897C39.3388 23.4603 37.9574 23.5879 37.9071 23.5918Z" fill="#720418"/>
</g>
<defs>
<clipPath id="clip0_559_93">
<rect width="42" height="42" fill="white"/>
</clipPath>
</defs>
</svg>
