<svg width="287" height="68" viewBox="0 0 287 68" fill="none" xmlns="http://www.w3.org/2000/svg">
<path d="M76.8932 16.7881H80.1972V24.0261H84.6212V26.5881H76.8932V16.7881ZM85.5338 16.7881H88.8378V26.5881H85.5338V16.7881ZM98.2684 21.4641C98.847 21.6788 99.295 21.9915 99.6124 22.4021C99.9297 22.8128 100.088 23.3075 100.088 23.8861C100.088 24.7448 99.7337 25.4121 99.0244 25.8881C98.315 26.3548 97.2884 26.5881 95.9444 26.5881H90.4284V16.7881H95.6644C96.971 16.7881 97.9557 17.0215 98.6184 17.4881C99.2904 17.9548 99.6264 18.5755 99.6264 19.3501C99.6264 19.8075 99.5097 20.2181 99.2764 20.5821C99.0524 20.9461 98.7164 21.2401 98.2684 21.4641ZM93.6764 19.0981V20.5541H95.2164C95.935 20.5541 96.2944 20.3115 96.2944 19.8261C96.2944 19.3408 95.935 19.0981 95.2164 19.0981H93.6764ZM95.6644 24.2781C96.3924 24.2781 96.7564 24.0215 96.7564 23.5081C96.7564 22.9948 96.3924 22.7381 95.6644 22.7381H93.6764V24.2781H95.6644ZM105.456 24.1241H104.56V26.5881H101.256V16.7881H105.974C106.88 16.7881 107.668 16.9375 108.34 17.2361C109.012 17.5348 109.53 17.9641 109.894 18.5241C110.258 19.0841 110.44 19.7375 110.44 20.4841C110.44 21.1841 110.282 21.7955 109.964 22.3181C109.647 22.8408 109.19 23.2561 108.592 23.5641L110.65 26.5881H107.122L105.456 24.1241ZM107.108 20.4841C107.108 20.1201 106.996 19.8401 106.772 19.6441C106.548 19.4388 106.212 19.3361 105.764 19.3361H104.56V21.6321H105.764C106.212 21.6321 106.548 21.5341 106.772 21.3381C106.996 21.1328 107.108 20.8481 107.108 20.4841ZM118.366 24.8801H114.642L113.984 26.5881H110.624L114.908 16.7881H118.156L122.44 26.5881H119.024L118.366 24.8801ZM117.456 22.5001L116.504 20.0361L115.552 22.5001H117.456ZM127.167 24.1241H126.271V26.5881H122.967V16.7881H127.685C128.591 16.7881 129.379 16.9375 130.051 17.2361C130.723 17.5348 131.241 17.9641 131.605 18.5241C131.969 19.0841 132.151 19.7375 132.151 20.4841C132.151 21.1841 131.993 21.7955 131.675 22.3181C131.358 22.8408 130.901 23.2561 130.303 23.5641L132.361 26.5881H128.833L127.167 24.1241ZM128.819 20.4841C128.819 20.1201 128.707 19.8401 128.483 19.6441C128.259 19.4388 127.923 19.3361 127.475 19.3361H126.271V21.6321H127.475C127.923 21.6321 128.259 21.5341 128.483 21.3381C128.707 21.1328 128.819 20.8481 128.819 20.4841ZM139.086 23.0321V26.5881H135.782V22.9901L132.086 16.7881H135.572L137.574 20.1761L139.59 16.7881H142.782L139.086 23.0321Z" fill="white"/>
<path d="M88.1671 45.1809C88.7651 45.3109 89.2245 45.5709 89.5451 45.9609C89.8745 46.3422 90.0391 46.8362 90.0391 47.4429C90.0391 48.2229 89.7488 48.8252 89.1681 49.2499C88.5961 49.6659 87.7468 49.8739 86.6201 49.8739H82.4341V40.7739H86.3601C87.3741 40.7739 88.1585 40.9776 88.7131 41.3849C89.2765 41.7922 89.5581 42.3686 89.5581 43.1139C89.5581 43.6166 89.4325 44.0456 89.1811 44.4009C88.9385 44.7476 88.6005 45.0076 88.1671 45.1809ZM83.3961 41.5669V44.8689H86.2951C87.0318 44.8689 87.5995 44.7302 87.9981 44.4529C88.3968 44.1669 88.5961 43.7552 88.5961 43.2179C88.5961 42.6806 88.3968 42.2732 87.9981 41.9959C87.5995 41.7099 87.0318 41.5669 86.2951 41.5669H83.3961ZM86.6071 49.0809C87.4218 49.0809 88.0371 48.9422 88.4531 48.6649C88.8691 48.3876 89.0771 47.9542 89.0771 47.3649C89.0771 46.2296 88.2538 45.6619 86.6071 45.6619H83.3961V49.0809H86.6071ZM96.2129 49.9519C95.3116 49.9519 94.4926 49.7526 93.7559 49.3539C93.0279 48.9466 92.4559 48.3919 92.0399 47.6899C91.6326 46.9879 91.4289 46.1992 91.4289 45.3239C91.4289 44.4486 91.6326 43.6599 92.0399 42.9579C92.4559 42.2559 93.0279 41.7056 93.7559 41.3069C94.4926 40.8996 95.3116 40.6959 96.2129 40.6959C97.1143 40.6959 97.9246 40.8952 98.6439 41.2939C99.3719 41.6926 99.9439 42.2472 100.36 42.9579C100.776 43.6599 100.984 44.4486 100.984 45.3239C100.984 46.1992 100.776 46.9922 100.36 47.7029C99.9439 48.4049 99.3719 48.9552 98.6439 49.3539C97.9246 49.7526 97.1143 49.9519 96.2129 49.9519ZM96.2129 49.0939C96.9323 49.0939 97.5823 48.9336 98.1629 48.6129C98.7436 48.2836 99.1986 47.8329 99.5279 47.2609C99.8573 46.6802 100.022 46.0346 100.022 45.3239C100.022 44.6132 99.8573 43.9719 99.5279 43.3999C99.1986 42.8192 98.7436 42.3686 98.1629 42.0479C97.5823 41.7186 96.9323 41.5539 96.2129 41.5539C95.4936 41.5539 94.8393 41.7186 94.2499 42.0479C93.6693 42.3686 93.2099 42.8192 92.8719 43.3999C92.5426 43.9719 92.3779 44.6132 92.3779 45.3239C92.3779 46.0346 92.5426 46.6802 92.8719 47.2609C93.2099 47.8329 93.6693 48.2836 94.2499 48.6129C94.8393 48.9336 95.4936 49.0939 96.2129 49.0939ZM107.118 49.9519C106.217 49.9519 105.398 49.7526 104.661 49.3539C103.933 48.9466 103.361 48.3919 102.945 47.6899C102.538 46.9879 102.334 46.1992 102.334 45.3239C102.334 44.4486 102.538 43.6599 102.945 42.9579C103.361 42.2559 103.933 41.7056 104.661 41.3069C105.398 40.8996 106.217 40.6959 107.118 40.6959C108.02 40.6959 108.83 40.8952 109.549 41.2939C110.277 41.6926 110.849 42.2472 111.265 42.9579C111.681 43.6599 111.889 44.4486 111.889 45.3239C111.889 46.1992 111.681 46.9922 111.265 47.7029C110.849 48.4049 110.277 48.9552 109.549 49.3539C108.83 49.7526 108.02 49.9519 107.118 49.9519ZM107.118 49.0939C107.838 49.0939 108.488 48.9336 109.068 48.6129C109.649 48.2836 110.104 47.8329 110.433 47.2609C110.763 46.6802 110.927 46.0346 110.927 45.3239C110.927 44.6132 110.763 43.9719 110.433 43.3999C110.104 42.8192 109.649 42.3686 109.068 42.0479C108.488 41.7186 107.838 41.5539 107.118 41.5539C106.399 41.5539 105.745 41.7186 105.155 42.0479C104.575 42.3686 104.115 42.8192 103.777 43.3999C103.448 43.9719 103.283 44.6132 103.283 45.3239C103.283 46.0346 103.448 46.6802 103.777 47.2609C104.115 47.8329 104.575 48.2836 105.155 48.6129C105.745 48.9336 106.399 49.0939 107.118 49.0939ZM116.866 45.5969L115.007 47.4819V49.8739H114.045V40.7739H115.007V46.2729L120.35 40.7739H121.455L117.516 44.8949L121.728 49.8739H120.584L116.866 45.5969ZM129.199 49.9519C128.523 49.9519 127.873 49.8436 127.249 49.6269C126.634 49.4102 126.157 49.1242 125.819 48.7689L126.196 48.0279C126.525 48.3572 126.963 48.6259 127.509 48.8339C128.055 49.0332 128.618 49.1329 129.199 49.1329C130.014 49.1329 130.625 48.9856 131.032 48.6909C131.439 48.3876 131.643 47.9976 131.643 47.5209C131.643 47.1569 131.53 46.8666 131.305 46.6499C131.088 46.4332 130.82 46.2686 130.499 46.1559C130.178 46.0346 129.732 45.9046 129.16 45.7659C128.475 45.5926 127.929 45.4279 127.522 45.2719C127.115 45.1072 126.764 44.8602 126.469 44.5309C126.183 44.2016 126.04 43.7552 126.04 43.1919C126.04 42.7326 126.161 42.3166 126.404 41.9439C126.647 41.5626 127.019 41.2592 127.522 41.0339C128.025 40.8086 128.649 40.6959 129.394 40.6959C129.914 40.6959 130.421 40.7696 130.915 40.9169C131.418 41.0556 131.851 41.2506 132.215 41.5019L131.89 42.2689C131.509 42.0176 131.101 41.8312 130.668 41.7099C130.235 41.5799 129.81 41.5149 129.394 41.5149C128.597 41.5149 127.994 41.6709 127.587 41.9829C127.188 42.2862 126.989 42.6806 126.989 43.1659C126.989 43.5299 127.097 43.8246 127.314 44.0499C127.539 44.2666 127.817 44.4356 128.146 44.5569C128.484 44.6696 128.935 44.7952 129.498 44.9339C130.165 45.0986 130.703 45.2632 131.11 45.4279C131.526 45.5839 131.877 45.8266 132.163 46.1559C132.449 46.4766 132.592 46.9142 132.592 47.4689C132.592 47.9282 132.466 48.3486 132.215 48.7299C131.972 49.1026 131.595 49.4016 131.084 49.6269C130.573 49.8436 129.944 49.9519 129.199 49.9519ZM136.329 41.6059H133.131V40.7739H140.489V41.6059H137.291V49.8739H136.329V41.6059ZM145.877 49.9519C144.976 49.9519 144.157 49.7526 143.42 49.3539C142.692 48.9466 142.12 48.3919 141.704 47.6899C141.297 46.9879 141.093 46.1992 141.093 45.3239C141.093 44.4486 141.297 43.6599 141.704 42.9579C142.12 42.2559 142.692 41.7056 143.42 41.3069C144.157 40.8996 144.976 40.6959 145.877 40.6959C146.778 40.6959 147.589 40.8952 148.308 41.2939C149.036 41.6926 149.608 42.2472 150.024 42.9579C150.44 43.6599 150.648 44.4486 150.648 45.3239C150.648 46.1992 150.44 46.9922 150.024 47.7029C149.608 48.4049 149.036 48.9552 148.308 49.3539C147.589 49.7526 146.778 49.9519 145.877 49.9519ZM145.877 49.0939C146.596 49.0939 147.246 48.9336 147.827 48.6129C148.408 48.2836 148.863 47.8329 149.192 47.2609C149.521 46.6802 149.686 46.0346 149.686 45.3239C149.686 44.6132 149.521 43.9719 149.192 43.3999C148.863 42.8192 148.408 42.3686 147.827 42.0479C147.246 41.7186 146.596 41.5539 145.877 41.5539C145.158 41.5539 144.503 41.7186 143.914 42.0479C143.333 42.3686 142.874 42.8192 142.536 43.3999C142.207 43.9719 142.042 44.6132 142.042 45.3239C142.042 46.0346 142.207 46.6802 142.536 47.2609C142.874 47.8329 143.333 48.2836 143.914 48.6129C144.503 48.9336 145.158 49.0939 145.877 49.0939ZM159.018 49.8739L156.938 46.9489C156.704 46.9749 156.462 46.9879 156.21 46.9879H153.766V49.8739H152.804V40.7739H156.21C157.372 40.7739 158.282 41.0512 158.94 41.6059C159.599 42.1606 159.928 42.9232 159.928 43.8939C159.928 44.6046 159.746 45.2069 159.382 45.7009C159.027 46.1862 158.516 46.5372 157.848 46.7539L160.071 49.8739H159.018ZM156.184 46.1689C157.086 46.1689 157.775 45.9696 158.251 45.5709C158.728 45.1722 158.966 44.6132 158.966 43.8939C158.966 43.1572 158.728 42.5939 158.251 42.2039C157.775 41.8052 157.086 41.6059 156.184 41.6059H153.766V46.1689H156.184ZM168.634 49.0419V49.8739H162.199V40.7739H168.439V41.6059H163.161V44.8429H167.867V45.6619H163.161V49.0419H168.634Z" fill="white"/>
<line x1="77.7144" y1="34.1357" x2="283.333" y2="34.1357" stroke="white" stroke-opacity="0.59"/>
<g clip-path="url(#clip0_559_171)">
<path d="M63.1489 24.1307C62.8739 22.0636 62.8352 18.5033 64.7552 17.3078C64.7895 17.2858 64.815 17.2542 64.8451 17.227C66.4148 16.7249 67.5011 16.0203 66.6484 15.0722L43.4929 8.09521L5.99892 13.3081C5.99892 13.3081 1.70539 13.9217 2.08894 20.5923C2.29716 24.2228 3.43583 26.0058 4.43164 26.8833L1.35492 27.8106C0.500964 28.7587 1.58708 29.4635 3.157 29.9647C3.18683 29.9927 3.21199 30.0242 3.2469 30.0461C5.16567 31.2426 5.12873 34.8026 4.85274 36.8701C-2.04041 38.8274 0.433995 39.4652 0.433995 39.4652L1.94608 39.8311C0.882485 40.7923 -0.1738 42.6148 0.0240634 46.0715C0.407817 52.7408 3.93445 53.2011 3.93445 53.2011L28.4703 61.1761L65.5042 52.2058C65.5042 52.2058 67.9794 51.567 61.0845 49.6095C60.8072 47.5452 60.7687 43.9857 62.6919 42.7861C62.7272 42.7648 62.753 42.7325 62.7816 42.7057C64.3515 42.2037 65.4368 41.4997 64.5839 40.5516L62.9742 40.0655C64.0477 39.4182 65.6603 37.7263 65.9129 33.3315C66.0872 30.3085 65.2986 28.5381 64.3858 27.4958L67.5675 26.7259C67.5677 26.7271 70.0429 26.0882 63.1489 24.1307ZM32.1723 24.0453L38.4 22.7653L59.4461 18.4403L62.5817 17.7954C61.5798 19.6291 61.6218 22.1387 61.7876 23.7516C61.824 24.1165 61.8658 24.4497 61.9063 24.703L58.4743 25.5563L31.9105 32.1646L32.1723 24.0453ZM5.42055 30.5358L8.55572 31.1807L28.7676 35.3357L30.5334 35.6973L35.8286 36.7857L36.0898 44.9052L8.78788 38.1127L6.09633 37.4438C6.13591 37.1901 6.17771 36.8573 6.21566 36.4914C6.38044 34.8797 6.42326 32.3695 5.42055 30.5358ZM4.20253 20.2712C4.16458 18.497 4.48075 17.2138 5.1198 16.5616C5.52649 16.1451 6.00643 16.0585 6.3356 16.0585C6.50951 16.0585 6.63472 16.0826 6.64325 16.0826L22.7984 21.3494L30.8585 23.9773L30.594 32.1534L7.98243 25.8141L6.78916 25.4798C6.74532 25.4674 6.68586 25.4589 6.64 25.4569C6.54685 25.4502 4.3113 25.2444 4.20253 20.2712ZM28.5287 57.6338L4.72448 50.96C4.68044 50.9472 4.62159 50.9387 4.57573 50.9365C4.48096 50.9302 2.24439 50.7246 2.13623 45.7526C2.09767 43.9761 2.41547 42.6942 3.0533 42.0413C3.461 41.6249 3.94115 41.5382 4.2697 41.5382C4.44402 41.5382 4.56883 41.5616 4.57796 41.5616C4.57796 41.5616 4.57898 41.5616 4.57796 41.5616L28.7915 49.4575L28.5287 57.6338ZM59.7211 49.2308C59.7587 49.5969 59.8005 49.9295 59.8411 50.1832L29.8446 57.6454L30.1068 49.5259L36.5198 48.2074L37.4669 48.4365L41.0167 47.2828L57.3796 43.9203L60.5164 43.275C59.5135 45.1085 59.5551 47.6191 59.7211 49.2308ZM61.3734 38.1961C61.3188 38.1973 61.2643 38.2046 61.2129 38.2208L58.9506 38.8542L37.4093 44.8944L37.1458 36.7183L44.2133 34.4131L61.3264 28.8321C61.3286 28.8311 62.2266 28.6316 62.8857 29.3019C63.5237 29.9542 63.8403 31.2374 63.803 33.0116C63.6914 37.9832 61.4548 38.1898 61.3734 38.1961Z" fill="white"/>
</g>
<defs>
<clipPath id="clip0_559_171">
<rect width="68" height="68" fill="white"/>
</clipPath>
</defs>
</svg>
