<svg width="68" height="54" viewBox="0 0 68 54" fill="none" xmlns="http://www.w3.org/2000/svg">
<path d="M63.1489 16.1307C62.8739 14.0636 62.8352 10.5033 64.7552 9.30778C64.7895 9.28586 64.815 9.25421 64.8451 9.22701C66.4148 8.72495 67.5011 8.02035 66.6484 7.07223L43.4929 0.0952454L5.99892 5.30809C5.99892 5.30809 1.70539 5.92177 2.08894 12.5923C2.29716 16.2229 3.43583 18.0059 4.43164 18.8834L1.35492 19.8106C0.500964 20.7587 1.58708 21.4635 3.157 21.9648C3.18683 21.9928 3.21199 22.0242 3.2469 22.0461C5.16567 23.2427 5.12873 26.8026 4.85274 28.8701C-2.04041 30.8274 0.433995 31.4653 0.433995 31.4653L1.94608 31.8312C0.882485 32.7923 -0.1738 34.6149 0.0240634 38.0715C0.407817 44.7408 3.93445 45.2011 3.93445 45.2011L28.4703 53.1761L65.5042 44.2059C65.5042 44.2059 67.9794 43.567 61.0845 41.6095C60.8072 39.5452 60.7687 35.9857 62.6919 34.7861C62.7272 34.7648 62.753 34.7326 62.7816 34.7058C64.3515 34.2037 65.4368 33.4997 64.5839 32.5516L62.9742 32.0656C64.0477 31.4182 65.6603 29.7263 65.9129 25.3315C66.0872 22.3085 65.2986 20.5381 64.3858 19.4958L67.5675 18.7259C67.5677 18.7271 70.0429 18.0883 63.1489 16.1307ZM32.1723 16.0453L38.4 14.7654L59.4461 10.4404L62.5817 9.79544C61.5798 11.6292 61.6218 14.1387 61.7876 15.7516C61.824 16.1165 61.8658 16.4498 61.9063 16.703L58.4743 17.5564L31.9105 24.1646L32.1723 16.0453ZM5.42055 22.5358L8.55572 23.1808L28.7676 27.3357L30.5334 27.6973L35.8286 28.7857L36.0898 36.9052L8.78788 30.1127L6.09633 29.4438C6.13591 29.1901 6.17771 28.8573 6.21566 28.4914C6.38044 26.8797 6.42326 24.3696 5.42055 22.5358ZM4.20253 12.2713C4.16458 10.497 4.48075 9.21382 5.1198 8.56158C5.52649 8.14515 6.00643 8.0585 6.3356 8.0585C6.50951 8.0585 6.63472 8.08265 6.64325 8.08265L22.7984 13.3495L30.8585 15.9773L30.594 24.1535L7.98243 17.8141L6.78916 17.4799C6.74532 17.4675 6.68586 17.459 6.64 17.4569C6.54685 17.4502 4.3113 17.2445 4.20253 12.2713ZM28.5287 49.6338L4.72448 42.96C4.68044 42.9473 4.62159 42.9387 4.57573 42.9365C4.48096 42.9302 2.24439 42.7246 2.13623 37.7527C2.09767 35.9762 2.41547 34.6942 3.0533 34.0414C3.461 33.6249 3.94115 33.5383 4.2697 33.5383C4.44402 33.5383 4.56883 33.5616 4.57796 33.5616C4.57796 33.5616 4.57898 33.5616 4.57796 33.5616L28.7915 41.4575L28.5287 49.6338ZM59.7211 41.2308C59.7587 41.5969 59.8005 41.9295 59.8411 42.1832L29.8446 49.6454L30.1068 41.5259L36.5198 40.2074L37.4669 40.4365L41.0167 39.2828L57.3796 35.9204L60.5164 35.275C59.5135 37.1086 59.5551 39.6191 59.7211 41.2308ZM61.3734 30.1961C61.3188 30.1973 61.2643 30.2046 61.2129 30.2209L58.9506 30.8542L37.4093 36.8945L37.1458 28.7183L44.2133 26.4132L61.3264 20.8322C61.3286 20.8312 62.2266 20.6317 62.8857 21.302C63.5237 21.9542 63.8403 23.2374 63.803 25.0117C63.6914 29.9832 61.4548 30.1898 61.3734 30.1961Z" fill="white"/>
</svg>
