<svg width="72" height="72" viewBox="0 0 72 72" fill="none" xmlns="http://www.w3.org/2000/svg">
<path fill-rule="evenodd" clip-rule="evenodd" d="M21.2612 0.46449C25.0734 0.28899 26.2889 0.24999 35.9999 0.24999C45.7109 0.24999 46.9264 0.29224 50.7354 0.46449C54.5444 0.63674 57.1444 1.24449 59.4194 2.12524C61.8017 3.02549 63.9629 4.43274 65.7504 6.25274C67.5704 8.03699 68.9744 10.195 69.8714 12.5805C70.7554 14.8555 71.3599 17.4555 71.5354 21.258C71.7109 25.0767 71.7499 26.2922 71.7499 36C71.7499 45.711 71.7077 46.9265 71.5354 50.7387C71.3632 54.5412 70.7554 57.1412 69.8714 59.4162C68.9744 61.802 67.5681 63.9636 65.7504 65.7505C63.9629 67.5705 61.8017 68.9745 59.4194 69.8715C57.1444 70.7555 54.5444 71.36 50.7419 71.5355C46.9264 71.711 45.7109 71.75 35.9999 71.75C26.2889 71.75 25.0734 71.7077 21.2612 71.5355C17.4587 71.3632 14.8587 70.7555 12.5837 69.8715C10.1979 68.9744 8.03636 67.5681 6.24944 65.7505C4.43067 63.9652 3.02321 61.8046 2.12519 59.4195C1.24444 57.1445 0.639939 54.5445 0.464439 50.742C0.288939 46.9232 0.249939 45.7077 0.249939 36C0.249939 26.289 0.292189 25.0735 0.464439 21.2645C0.636689 17.4555 1.24444 14.8555 2.12519 12.5805C3.02454 10.1953 4.43307 8.03476 6.25269 6.24949C8.03707 4.43112 10.1965 3.02368 12.5804 2.12524C14.8554 1.24449 17.4554 0.63999 21.2579 0.46449H21.2612ZM50.4462 6.89949C46.6762 6.72724 45.5452 6.69149 35.9999 6.69149C26.4547 6.69149 25.3237 6.72724 21.5537 6.89949C18.0664 7.05874 16.1749 7.64049 14.9139 8.13124C13.2467 8.78124 12.0539 9.55149 10.8027 10.8027C9.61659 11.9567 8.70377 13.3614 8.13119 14.914C7.64044 16.175 7.05869 18.0665 6.89944 21.5537C6.72719 25.3237 6.69144 26.4547 6.69144 36C6.69144 45.5452 6.72719 46.6762 6.89944 50.4462C7.05869 53.9335 7.64044 55.825 8.13119 57.086C8.70319 58.6362 9.61644 60.0435 10.8027 61.1972C11.9564 62.3835 13.3637 63.2967 14.9139 63.8687C16.1749 64.3595 18.0664 64.9412 21.5537 65.1005C25.3237 65.2727 26.4514 65.3085 35.9999 65.3085C45.5484 65.3085 46.6762 65.2727 50.4462 65.1005C53.9334 64.9412 55.8249 64.3595 57.0859 63.8687C58.7532 63.2187 59.9459 62.4485 61.1972 61.1972C62.3834 60.0435 63.2967 58.6362 63.8687 57.086C64.3594 55.825 64.9412 53.9335 65.1004 50.4462C65.2727 46.6762 65.3084 45.5452 65.3084 36C65.3084 26.4547 65.2727 25.3237 65.1004 21.5537C64.9412 18.0665 64.3594 16.175 63.8687 14.914C63.2187 13.2467 62.4484 12.054 61.1972 10.8027C60.0432 9.61672 58.6385 8.70392 57.0859 8.13124C55.8249 7.64049 53.9334 7.05874 50.4462 6.89949ZM31.4337 47.0207C33.9838 48.0823 36.8234 48.2256 39.4675 47.4261C42.1115 46.6266 44.396 44.934 45.9307 42.6373C47.4654 40.3406 48.1551 37.5823 47.8821 34.8336C47.6091 32.0848 46.3902 29.5161 44.4337 27.5662C43.1865 26.3198 41.6784 25.3654 40.018 24.7717C38.3577 24.1781 36.5863 23.9599 34.8316 24.133C33.0768 24.3061 31.3822 24.8661 29.8698 25.7727C28.3574 26.6793 27.0649 27.9099 26.0852 29.376C25.1055 30.8421 24.4631 32.5072 24.2041 34.2514C23.9452 35.9955 24.0762 37.7754 24.5877 39.4629C25.0992 41.1504 25.9785 42.7035 27.1623 44.0103C28.3461 45.3172 29.8049 46.3453 31.4337 47.0207ZM23.0064 23.0065C24.7128 21.3002 26.7385 19.9466 28.9679 19.0232C31.1973 18.0997 33.5868 17.6244 35.9999 17.6244C38.4131 17.6244 40.8025 18.0997 43.032 19.0232C45.2614 19.9466 47.2871 21.3002 48.9934 23.0065C50.6998 24.7128 52.0533 26.7385 52.9768 28.968C53.9002 31.1974 54.3755 33.5869 54.3755 36C54.3755 38.4131 53.9002 40.8026 52.9768 43.032C52.0533 45.2614 50.6998 47.2872 48.9934 48.9935C45.5473 52.4396 40.8734 54.3756 35.9999 54.3756C31.1264 54.3756 26.4525 52.4396 23.0064 48.9935C19.5603 45.5474 17.6244 40.8735 17.6244 36C17.6244 31.1265 19.5603 26.4526 23.0064 23.0065ZM58.4509 20.361C58.8738 19.9621 59.2123 19.4825 59.4464 18.9504C59.6806 18.4184 59.8056 17.8447 59.814 17.2635C59.8225 16.6823 59.7143 16.1053 59.4958 15.5666C59.2772 15.028 58.9528 14.5386 58.5418 14.1276C58.1308 13.7166 57.6415 13.3922 57.1028 13.1737C56.5642 12.9551 55.9871 12.8469 55.4059 12.8554C54.8247 12.8639 54.2511 12.9889 53.719 13.223C53.187 13.4571 52.7073 13.7956 52.3084 14.2185C51.5327 15.0408 51.108 16.1331 51.1245 17.2635C51.1409 18.3939 51.5973 19.4733 52.3967 20.2727C53.1961 21.0721 54.2755 21.5285 55.4059 21.545C56.5363 21.5614 57.6286 21.1367 58.4509 20.361Z" fill="#241400"/>
</svg>
